<?xml version="1.0" encoding="UTF-8"?>
<!DOCTYPE svg PUBLIC "-//W3C//DTD SVG 1.1//EN" "http://www.w3.org/Graphics/SVG/1.1/DTD/svg11.dtd">
<svg xmlns="http://www.w3.org/2000/svg">
    <symbol id="default" viewBox="0 0 50.000000 50.000000">
        <path d="M22.432,1.218c-4.135,0.693-7.434,3.274-8.581,6.716c-0.549,1.673-0.382,4.708,0.359,6.118
		c1.171,2.271,3.035,3.537,7.672,5.187c4.397,1.554,5.258,2.318,4.422,3.92c-0.432,0.86-1.65,1.697-2.415,1.697
		c-0.717,0-3.322-0.813-6.286-1.959c-3.25-1.267-3.274-1.243-4.254,1.983c-0.693,2.271-0.884,3.203-0.813,3.945
		c0.071,0.693,6.357,2.797,9.488,3.178c4.183,0.525,7.816-0.668,10.278-3.395c3.105-3.392,3.775-7.886,1.648-11.089
		c-1.386-2.079-3.442-3.346-8.126-4.972c-2.582-0.908-3.944-1.792-3.944-2.581c0-0.191,0.215-0.622,0.501-0.98
		c0.669-0.86,1.841-0.813,4.207,0.12c3.131,1.243,5.258,0.932,6.358-0.932c0.548-0.956,0.525-2.844-0.05-3.705
		c-1.027-1.578-3.417-2.772-6.477-3.274C24.654,0.931,24.176,0.931,22.432,1.218z"/>
	<path d="M24.87,34.799C3.215,43.26,2.164,43.713,2.092,44.311c-0.048,0.336-0.024,0.621,0.048,0.621
		c0.119,0,41.54-10.395,44.911-11.256l0.884-0.24v-3.68c0-2.031-0.072-3.729-0.168-3.776C47.647,25.932,37.37,29.898,24.87,34.799z"
		/>
	<path d="M32.16,40.727c-8.342,3.178-15.967,6.094-16.898,6.453c-1.363,0.525-1.745,0.764-1.745,1.148
		c0,0.332,0.12,0.428,0.43,0.332c0.669-0.191,33.724-8.27,33.869-8.27c0.071,0,0.119-1.242,0.119-2.748
		c0-2.055-0.072-2.748-0.287-2.748C47.479,34.918,40.501,37.523,32.16,40.727z"/>
    </symbol>
</svg>